<svg class="svg-inline--fa fa-bars fa-w-14 hw-navbar__bars fa-stack-2x" title="NOT_TRANSLATED" aria-labelledby="svg-inline--fa-title-dHMG9sS027ba" data-prefix="far" data-icon="bars" role="img" xmlns="http://www.w3.org/2000/svg" viewBox="0 0 448 512" data-fa-i2svg=""><title id="svg-inline--fa-title-dHMG9sS027ba">NOT_TRANSLATED</title><path fill="currentColor" d="M436 124H12c-6.627 0-12-5.373-12-12V80c0-6.627 5.373-12 12-12h424c6.627 0 12 5.373 12 12v32c0 6.627-5.373 12-12 12zm0 160H12c-6.627 0-12-5.373-12-12v-32c0-6.627 5.373-12 12-12h424c6.627 0 12 5.373 12 12v32c0 6.627-5.373 12-12 12zm0 160H12c-6.627 0-12-5.373-12-12v-32c0-6.627 5.373-12 12-12h424c6.627 0 12 5.373 12 12v32c0 6.627-5.373 12-12 12z"></path></svg>